<mxfile host="app.diagrams.net" agent="Mozilla/5.0 (Windows NT 10.0; Win64; x64) AppleWebKit/537.36 (KHTML, like Gecko) Chrome/132.0.0.0 Safari/537.36" version="26.0.14">
  <diagram id="Va4cJaBtIPoyBebB3SPM" name="Página-1">
    <mxGraphModel dx="1235" dy="665" grid="1" gridSize="10" guides="1" tooltips="1" connect="1" arrows="1" fold="1" page="1" pageScale="1" pageWidth="827" pageHeight="1169" math="0" shadow="0">
      <root>
        <mxCell id="0" />
        <mxCell id="1" parent="0" />
        <mxCell id="_3qea9uIDcCa7MmbAi9--6" style="edgeStyle=orthogonalEdgeStyle;rounded=0;orthogonalLoop=1;jettySize=auto;html=1;exitX=0.5;exitY=1;exitDx=0;exitDy=0;exitPerimeter=0;entryX=0.5;entryY=0;entryDx=0;entryDy=0;" parent="1" source="_3qea9uIDcCa7MmbAi9--3" target="_3qea9uIDcCa7MmbAi9--4" edge="1">
          <mxGeometry relative="1" as="geometry" />
        </mxCell>
        <mxCell id="_3qea9uIDcCa7MmbAi9--3" value="&lt;font style=&quot;color: rgb(0, 0, 0);&quot;&gt;INÍCIO&lt;/font&gt;" style="strokeWidth=2;html=1;shape=mxgraph.flowchart.start_1;whiteSpace=wrap;fillColor=#008a00;fontColor=#ffffff;strokeColor=#005700;" parent="1" vertex="1">
          <mxGeometry x="140" y="60" width="100" height="60" as="geometry" />
        </mxCell>
        <mxCell id="_3qea9uIDcCa7MmbAi9--9" style="edgeStyle=orthogonalEdgeStyle;rounded=0;orthogonalLoop=1;jettySize=auto;html=1;exitX=0.5;exitY=1;exitDx=0;exitDy=0;entryX=0.5;entryY=0;entryDx=0;entryDy=0;" parent="1" source="_3qea9uIDcCa7MmbAi9--4" target="_3qea9uIDcCa7MmbAi9--8" edge="1">
          <mxGeometry relative="1" as="geometry" />
        </mxCell>
        <mxCell id="_3qea9uIDcCa7MmbAi9--4" value="RECEBE O 1°DIGITO" style="shape=parallelogram;html=1;strokeWidth=2;perimeter=parallelogramPerimeter;whiteSpace=wrap;rounded=1;arcSize=12;size=0.23;fillColor=#e3c800;fontColor=#000000;strokeColor=#B09500;" parent="1" vertex="1">
          <mxGeometry x="40" y="210" width="100" height="60" as="geometry" />
        </mxCell>
        <mxCell id="_3qea9uIDcCa7MmbAi9--15" style="edgeStyle=orthogonalEdgeStyle;rounded=0;orthogonalLoop=1;jettySize=auto;html=1;" parent="1" source="_3qea9uIDcCa7MmbAi9--8" target="_3qea9uIDcCa7MmbAi9--14" edge="1">
          <mxGeometry relative="1" as="geometry" />
        </mxCell>
        <mxCell id="_3qea9uIDcCa7MmbAi9--8" value="RECEBE O 2°DIGITO" style="shape=parallelogram;html=1;strokeWidth=2;perimeter=parallelogramPerimeter;whiteSpace=wrap;rounded=1;arcSize=12;size=0.23;fillColor=#e3c800;fontColor=#000000;strokeColor=#B09500;" parent="1" vertex="1">
          <mxGeometry x="150" y="330" width="100" height="60" as="geometry" />
        </mxCell>
        <mxCell id="_3qea9uIDcCa7MmbAi9--14" value="REALIZAR A SOMA DOS NÚMEROS OBTIDOS" style="rounded=1;whiteSpace=wrap;html=1;absoluteArcSize=1;arcSize=14;strokeWidth=2;fillColor=#cce5ff;strokeColor=#36393d;" parent="1" vertex="1">
          <mxGeometry x="50" y="470" width="110" height="60" as="geometry" />
        </mxCell>
        <mxCell id="_3qea9uIDcCa7MmbAi9--24" style="edgeStyle=orthogonalEdgeStyle;rounded=0;orthogonalLoop=1;jettySize=auto;html=1;exitX=0.5;exitY=1;exitDx=0;exitDy=0;exitPerimeter=0;" parent="1" source="_3qea9uIDcCa7MmbAi9--16" target="_3qea9uIDcCa7MmbAi9--21" edge="1">
          <mxGeometry relative="1" as="geometry" />
        </mxCell>
        <mxCell id="_3qea9uIDcCa7MmbAi9--16" value="EXIBE O RESULTADO DA SOMA" style="strokeWidth=2;html=1;shape=mxgraph.flowchart.display;whiteSpace=wrap;fillColor=#ffcc99;strokeColor=#36393d;" parent="1" vertex="1">
          <mxGeometry x="160" y="650" width="100" height="70" as="geometry" />
        </mxCell>
        <mxCell id="_3qea9uIDcCa7MmbAi9--21" value="FIM" style="strokeWidth=2;html=1;shape=mxgraph.flowchart.start_1;whiteSpace=wrap;fillColor=#f8cecc;strokeColor=#b85450;" parent="1" vertex="1">
          <mxGeometry x="55" y="770" width="100" height="60" as="geometry" />
        </mxCell>
        <mxCell id="_3qea9uIDcCa7MmbAi9--23" style="edgeStyle=orthogonalEdgeStyle;rounded=0;orthogonalLoop=1;jettySize=auto;html=1;entryX=0.5;entryY=0;entryDx=0;entryDy=0;entryPerimeter=0;" parent="1" source="_3qea9uIDcCa7MmbAi9--14" target="_3qea9uIDcCa7MmbAi9--16" edge="1">
          <mxGeometry relative="1" as="geometry" />
        </mxCell>
        <mxCell id="_3qea9uIDcCa7MmbAi9--461" style="edgeStyle=orthogonalEdgeStyle;rounded=0;orthogonalLoop=1;jettySize=auto;html=1;exitX=0.5;exitY=1;exitDx=0;exitDy=0;exitPerimeter=0;entryX=0.5;entryY=0;entryDx=0;entryDy=0;" parent="1" source="_3qea9uIDcCa7MmbAi9--462" target="_3qea9uIDcCa7MmbAi9--464" edge="1">
          <mxGeometry relative="1" as="geometry" />
        </mxCell>
        <mxCell id="_3qea9uIDcCa7MmbAi9--462" value="&lt;font style=&quot;color: rgb(0, 0, 0);&quot;&gt;INÍCIO&lt;/font&gt;" style="strokeWidth=2;html=1;shape=mxgraph.flowchart.start_1;whiteSpace=wrap;fillColor=#008a00;fontColor=#ffffff;strokeColor=#005700;" parent="1" vertex="1">
          <mxGeometry x="510" y="50" width="100" height="60" as="geometry" />
        </mxCell>
        <mxCell id="_3qea9uIDcCa7MmbAi9--479" style="edgeStyle=orthogonalEdgeStyle;rounded=0;orthogonalLoop=1;jettySize=auto;html=1;entryX=0.5;entryY=0;entryDx=0;entryDy=0;" parent="1" source="_3qea9uIDcCa7MmbAi9--464" target="_3qea9uIDcCa7MmbAi9--476" edge="1">
          <mxGeometry relative="1" as="geometry" />
        </mxCell>
        <mxCell id="_3qea9uIDcCa7MmbAi9--464" value="RECEBE O 1°DIGITO" style="shape=parallelogram;html=1;strokeWidth=2;perimeter=parallelogramPerimeter;whiteSpace=wrap;rounded=1;arcSize=12;size=0.23;fillColor=#e3c800;fontColor=#000000;strokeColor=#B09500;" parent="1" vertex="1">
          <mxGeometry x="510" y="210" width="100" height="60" as="geometry" />
        </mxCell>
        <mxCell id="_3qea9uIDcCa7MmbAi9--468" style="edgeStyle=orthogonalEdgeStyle;rounded=0;orthogonalLoop=1;jettySize=auto;html=1;exitX=0.5;exitY=1;exitDx=0;exitDy=0;exitPerimeter=0;" parent="1" source="_3qea9uIDcCa7MmbAi9--469" target="_3qea9uIDcCa7MmbAi9--470" edge="1">
          <mxGeometry relative="1" as="geometry" />
        </mxCell>
        <mxCell id="_3qea9uIDcCa7MmbAi9--469" value="EXIBE O RESULTADO DA SOMA" style="strokeWidth=2;html=1;shape=mxgraph.flowchart.display;whiteSpace=wrap;fillColor=#ffcc99;strokeColor=#36393d;" parent="1" vertex="1">
          <mxGeometry x="510" y="560" width="100" height="70" as="geometry" />
        </mxCell>
        <mxCell id="_3qea9uIDcCa7MmbAi9--470" value="FIM" style="strokeWidth=2;html=1;shape=mxgraph.flowchart.start_1;whiteSpace=wrap;fillColor=#f8cecc;strokeColor=#b85450;" parent="1" vertex="1">
          <mxGeometry x="510" y="770" width="100" height="60" as="geometry" />
        </mxCell>
        <mxCell id="_3qea9uIDcCa7MmbAi9--481" style="edgeStyle=orthogonalEdgeStyle;rounded=0;orthogonalLoop=1;jettySize=auto;html=1;exitX=0.5;exitY=1;exitDx=0;exitDy=0;entryX=0.5;entryY=0;entryDx=0;entryDy=0;" parent="1" source="_3qea9uIDcCa7MmbAi9--476" target="_3qea9uIDcCa7MmbAi9--480" edge="1">
          <mxGeometry relative="1" as="geometry" />
        </mxCell>
        <mxCell id="_3qea9uIDcCa7MmbAi9--476" value="CALCULAR O DOBRO DESTE NUMERO" style="shape=parallelogram;html=1;strokeWidth=2;perimeter=parallelogramPerimeter;whiteSpace=wrap;rounded=1;arcSize=12;size=0.23;fillColor=#e3c800;fontColor=#000000;strokeColor=#B09500;" parent="1" vertex="1">
          <mxGeometry x="500" y="320" width="120" height="80" as="geometry" />
        </mxCell>
        <mxCell id="_3qea9uIDcCa7MmbAi9--480" value="CALCULAR A METADE DESTE NUMERO" style="shape=parallelogram;html=1;strokeWidth=2;perimeter=parallelogramPerimeter;whiteSpace=wrap;rounded=1;arcSize=12;size=0.23;fillColor=#e3c800;fontColor=#000000;strokeColor=#B09500;" parent="1" vertex="1">
          <mxGeometry x="500" y="440" width="120" height="80" as="geometry" />
        </mxCell>
        <mxCell id="_3qea9uIDcCa7MmbAi9--483" style="edgeStyle=orthogonalEdgeStyle;rounded=0;orthogonalLoop=1;jettySize=auto;html=1;entryX=0.5;entryY=0;entryDx=0;entryDy=0;entryPerimeter=0;" parent="1" source="_3qea9uIDcCa7MmbAi9--480" target="_3qea9uIDcCa7MmbAi9--469" edge="1">
          <mxGeometry relative="1" as="geometry" />
        </mxCell>
        <mxCell id="_3qea9uIDcCa7MmbAi9--487" style="edgeStyle=orthogonalEdgeStyle;rounded=0;orthogonalLoop=1;jettySize=auto;html=1;exitX=0.5;exitY=1;exitDx=0;exitDy=0;exitPerimeter=0;entryX=0.5;entryY=0;entryDx=0;entryDy=0;" parent="1" source="_3qea9uIDcCa7MmbAi9--488" target="_3qea9uIDcCa7MmbAi9--490" edge="1">
          <mxGeometry relative="1" as="geometry" />
        </mxCell>
        <mxCell id="_3qea9uIDcCa7MmbAi9--488" value="&lt;font style=&quot;color: rgb(0, 0, 0);&quot;&gt;INÍCIO&lt;/font&gt;" style="strokeWidth=2;html=1;shape=mxgraph.flowchart.start_1;whiteSpace=wrap;fillColor=#008a00;fontColor=#ffffff;strokeColor=#005700;" parent="1" vertex="1">
          <mxGeometry x="329" y="1260" width="100" height="60" as="geometry" />
        </mxCell>
        <mxCell id="_3qea9uIDcCa7MmbAi9--489" style="edgeStyle=orthogonalEdgeStyle;rounded=0;orthogonalLoop=1;jettySize=auto;html=1;entryX=0.5;entryY=0;entryDx=0;entryDy=0;" parent="1" source="_3qea9uIDcCa7MmbAi9--490" target="_3qea9uIDcCa7MmbAi9--498" edge="1">
          <mxGeometry relative="1" as="geometry">
            <mxPoint x="379" y="1530" as="targetPoint" />
          </mxGeometry>
        </mxCell>
        <mxCell id="_3qea9uIDcCa7MmbAi9--490" value="OBTER A 1° NOTA" style="shape=parallelogram;html=1;strokeWidth=2;perimeter=parallelogramPerimeter;whiteSpace=wrap;rounded=1;arcSize=12;size=0.23;fillColor=#e3c800;fontColor=#000000;strokeColor=#B09500;" parent="1" vertex="1">
          <mxGeometry x="329" y="1420" width="100" height="60" as="geometry" />
        </mxCell>
        <mxCell id="_3qea9uIDcCa7MmbAi9--493" value="FIM" style="strokeWidth=2;html=1;shape=mxgraph.flowchart.start_1;whiteSpace=wrap;fillColor=#f8cecc;strokeColor=#b85450;" parent="1" vertex="1">
          <mxGeometry x="329" y="2120" width="100" height="60" as="geometry" />
        </mxCell>
        <mxCell id="_3qea9uIDcCa7MmbAi9--494" style="edgeStyle=orthogonalEdgeStyle;rounded=0;orthogonalLoop=1;jettySize=auto;html=1;exitX=0.5;exitY=1;exitDx=0;exitDy=0;entryX=0.5;entryY=0;entryDx=0;entryDy=0;" parent="1" edge="1">
          <mxGeometry relative="1" as="geometry">
            <mxPoint x="378.40999999999997" y="1620" as="sourcePoint" />
            <mxPoint x="378.40999999999997" y="1660" as="targetPoint" />
          </mxGeometry>
        </mxCell>
        <mxCell id="_3qea9uIDcCa7MmbAi9--498" value="OBTER A 2° NOTA" style="shape=parallelogram;html=1;strokeWidth=2;perimeter=parallelogramPerimeter;whiteSpace=wrap;rounded=1;arcSize=12;size=0.23;fillColor=#e3c800;fontColor=#000000;strokeColor=#B09500;" parent="1" vertex="1">
          <mxGeometry x="329" y="1550" width="100" height="60" as="geometry" />
        </mxCell>
        <mxCell id="_3qea9uIDcCa7MmbAi9--500" value="CALCULAR A MÉDIA" style="rounded=1;whiteSpace=wrap;html=1;fillColor=#dae8fc;strokeColor=#6c8ebf;" parent="1" vertex="1">
          <mxGeometry x="319" y="1660" width="120" height="60" as="geometry" />
        </mxCell>
        <mxCell id="_3qea9uIDcCa7MmbAi9--502" style="edgeStyle=orthogonalEdgeStyle;rounded=0;orthogonalLoop=1;jettySize=auto;html=1;entryX=0.5;entryY=0;entryDx=0;entryDy=0;entryPerimeter=0;" parent="1" source="_3qea9uIDcCa7MmbAi9--500" edge="1">
          <mxGeometry relative="1" as="geometry">
            <mxPoint x="379" y="1770" as="targetPoint" />
          </mxGeometry>
        </mxCell>
        <mxCell id="_3qea9uIDcCa7MmbAi9--503" value="MÉDIA ACIMA DE 7?" style="rhombus;whiteSpace=wrap;html=1;fillColor=#fff2cc;strokeColor=#d6b656;" parent="1" vertex="1">
          <mxGeometry x="314" y="1770" width="130" height="140" as="geometry" />
        </mxCell>
        <mxCell id="_3qea9uIDcCa7MmbAi9--506" value="EXIBIR APROVADO" style="strokeWidth=2;html=1;shape=mxgraph.flowchart.display;whiteSpace=wrap;fillColor=#ffe6cc;strokeColor=#d79b00;" parent="1" vertex="1">
          <mxGeometry x="519" y="1940" width="100" height="60" as="geometry" />
        </mxCell>
        <mxCell id="_3qea9uIDcCa7MmbAi9--507" style="edgeStyle=orthogonalEdgeStyle;rounded=0;orthogonalLoop=1;jettySize=auto;html=1;exitX=1;exitY=0.5;exitDx=0;exitDy=0;entryX=0.5;entryY=0;entryDx=0;entryDy=0;entryPerimeter=0;" parent="1" source="_3qea9uIDcCa7MmbAi9--503" target="_3qea9uIDcCa7MmbAi9--506" edge="1">
          <mxGeometry relative="1" as="geometry" />
        </mxCell>
        <mxCell id="_3qea9uIDcCa7MmbAi9--508" value="SIM" style="edgeLabel;html=1;align=center;verticalAlign=middle;resizable=0;points=[];" parent="_3qea9uIDcCa7MmbAi9--507" vertex="1" connectable="0">
          <mxGeometry x="-0.4248" y="2" relative="1" as="geometry">
            <mxPoint y="-8" as="offset" />
          </mxGeometry>
        </mxCell>
        <mxCell id="_3qea9uIDcCa7MmbAi9--509" value="EXIBIR REPROVADO" style="strokeWidth=2;html=1;shape=mxgraph.flowchart.display;whiteSpace=wrap;fillColor=#ffe6cc;strokeColor=#d79b00;" parent="1" vertex="1">
          <mxGeometry x="209" y="1930" width="100" height="60" as="geometry" />
        </mxCell>
        <mxCell id="_3qea9uIDcCa7MmbAi9--511" style="edgeStyle=orthogonalEdgeStyle;rounded=0;orthogonalLoop=1;jettySize=auto;html=1;entryX=0.5;entryY=0;entryDx=0;entryDy=0;entryPerimeter=0;" parent="1" target="_3qea9uIDcCa7MmbAi9--509" edge="1">
          <mxGeometry relative="1" as="geometry">
            <mxPoint x="319.0042857142858" y="1840" as="sourcePoint" />
            <mxPoint x="258.2899999999998" y="1870" as="targetPoint" />
            <Array as="points">
              <mxPoint x="259" y="1840" />
            </Array>
          </mxGeometry>
        </mxCell>
        <mxCell id="_3qea9uIDcCa7MmbAi9--512" value="NÃO" style="edgeLabel;html=1;align=center;verticalAlign=middle;resizable=0;points=[];" parent="_3qea9uIDcCa7MmbAi9--511" vertex="1" connectable="0">
          <mxGeometry x="-0.6088" relative="1" as="geometry">
            <mxPoint y="-10" as="offset" />
          </mxGeometry>
        </mxCell>
        <mxCell id="_3qea9uIDcCa7MmbAi9--515" style="edgeStyle=orthogonalEdgeStyle;rounded=0;orthogonalLoop=1;jettySize=auto;html=1;entryX=0;entryY=0.5;entryDx=0;entryDy=0;entryPerimeter=0;exitX=0.5;exitY=1;exitDx=0;exitDy=0;exitPerimeter=0;" parent="1" source="_3qea9uIDcCa7MmbAi9--509" edge="1">
          <mxGeometry relative="1" as="geometry">
            <mxPoint x="259" y="2000" as="sourcePoint" />
            <mxPoint x="329" y="2150" as="targetPoint" />
            <Array as="points">
              <mxPoint x="259" y="2150" />
            </Array>
          </mxGeometry>
        </mxCell>
        <mxCell id="_3qea9uIDcCa7MmbAi9--516" style="edgeStyle=orthogonalEdgeStyle;rounded=0;orthogonalLoop=1;jettySize=auto;html=1;exitX=0;exitY=0.5;exitDx=0;exitDy=0;exitPerimeter=0;entryX=1;entryY=0.5;entryDx=0;entryDy=0;entryPerimeter=0;" parent="1" source="_3qea9uIDcCa7MmbAi9--506" edge="1">
          <mxGeometry relative="1" as="geometry">
            <mxPoint x="429" y="2150" as="targetPoint" />
          </mxGeometry>
        </mxCell>
        <mxCell id="yPkB2fRnEWPRsgK_dyeM-2" style="edgeStyle=orthogonalEdgeStyle;rounded=0;orthogonalLoop=1;jettySize=auto;html=1;exitX=0.5;exitY=1;exitDx=0;exitDy=0;exitPerimeter=0;entryX=0.5;entryY=0;entryDx=0;entryDy=0;" edge="1" source="yPkB2fRnEWPRsgK_dyeM-3" target="yPkB2fRnEWPRsgK_dyeM-5" parent="1">
          <mxGeometry relative="1" as="geometry" />
        </mxCell>
        <mxCell id="yPkB2fRnEWPRsgK_dyeM-3" value="&lt;font style=&quot;color: rgb(0, 0, 0);&quot;&gt;INÍCIO&lt;/font&gt;" style="strokeWidth=2;html=1;shape=mxgraph.flowchart.start_1;whiteSpace=wrap;fillColor=#008a00;fontColor=#ffffff;strokeColor=#005700;" vertex="1" parent="1">
          <mxGeometry x="1220" y="60" width="100" height="60" as="geometry" />
        </mxCell>
        <mxCell id="yPkB2fRnEWPRsgK_dyeM-15" style="edgeStyle=orthogonalEdgeStyle;rounded=0;orthogonalLoop=1;jettySize=auto;html=1;entryX=1;entryY=0.5;entryDx=0;entryDy=0;" edge="1" parent="1" source="yPkB2fRnEWPRsgK_dyeM-5" target="yPkB2fRnEWPRsgK_dyeM-14">
          <mxGeometry relative="1" as="geometry" />
        </mxCell>
        <mxCell id="yPkB2fRnEWPRsgK_dyeM-16" style="edgeStyle=orthogonalEdgeStyle;rounded=0;orthogonalLoop=1;jettySize=auto;html=1;entryX=0;entryY=0.5;entryDx=0;entryDy=0;" edge="1" parent="1" source="yPkB2fRnEWPRsgK_dyeM-5" target="yPkB2fRnEWPRsgK_dyeM-13">
          <mxGeometry relative="1" as="geometry" />
        </mxCell>
        <mxCell id="yPkB2fRnEWPRsgK_dyeM-5" value="RECEBE O NÚMERO" style="shape=parallelogram;html=1;strokeWidth=2;perimeter=parallelogramPerimeter;whiteSpace=wrap;rounded=1;arcSize=12;size=0.23;fillColor=#e3c800;fontColor=#000000;strokeColor=#B09500;" vertex="1" parent="1">
          <mxGeometry x="1220" y="220" width="100" height="60" as="geometry" />
        </mxCell>
        <mxCell id="yPkB2fRnEWPRsgK_dyeM-19" style="edgeStyle=orthogonalEdgeStyle;rounded=0;orthogonalLoop=1;jettySize=auto;html=1;" edge="1" parent="1" source="yPkB2fRnEWPRsgK_dyeM-13">
          <mxGeometry relative="1" as="geometry">
            <mxPoint x="1500" y="460" as="targetPoint" />
            <Array as="points">
              <mxPoint x="1500" y="450" />
            </Array>
          </mxGeometry>
        </mxCell>
        <mxCell id="yPkB2fRnEWPRsgK_dyeM-13" value="É IMPAR?" style="rhombus;whiteSpace=wrap;html=1;fillColor=#f0a30a;strokeColor=#BD7000;fontColor=#000000;" vertex="1" parent="1">
          <mxGeometry x="1460" y="210" width="80" height="80" as="geometry" />
        </mxCell>
        <mxCell id="yPkB2fRnEWPRsgK_dyeM-18" style="edgeStyle=orthogonalEdgeStyle;rounded=0;orthogonalLoop=1;jettySize=auto;html=1;entryX=0.5;entryY=0;entryDx=0;entryDy=0;entryPerimeter=0;" edge="1" parent="1" source="yPkB2fRnEWPRsgK_dyeM-14" target="yPkB2fRnEWPRsgK_dyeM-20">
          <mxGeometry relative="1" as="geometry">
            <mxPoint x="1060" y="450" as="targetPoint" />
            <Array as="points" />
          </mxGeometry>
        </mxCell>
        <mxCell id="yPkB2fRnEWPRsgK_dyeM-14" value="É PAR?" style="rhombus;whiteSpace=wrap;html=1;fillColor=#f0a30a;fontColor=#000000;strokeColor=#BD7000;" vertex="1" parent="1">
          <mxGeometry x="1020" y="210" width="80" height="80" as="geometry" />
        </mxCell>
        <mxCell id="yPkB2fRnEWPRsgK_dyeM-17" value="FIM" style="ellipse;whiteSpace=wrap;html=1;fillColor=#f8cecc;strokeColor=#b85450;" vertex="1" parent="1">
          <mxGeometry x="1210" y="410" width="120" height="80" as="geometry" />
        </mxCell>
        <mxCell id="yPkB2fRnEWPRsgK_dyeM-22" style="edgeStyle=orthogonalEdgeStyle;rounded=0;orthogonalLoop=1;jettySize=auto;html=1;entryX=0;entryY=0.5;entryDx=0;entryDy=0;" edge="1" parent="1" source="yPkB2fRnEWPRsgK_dyeM-20" target="yPkB2fRnEWPRsgK_dyeM-17">
          <mxGeometry relative="1" as="geometry" />
        </mxCell>
        <mxCell id="yPkB2fRnEWPRsgK_dyeM-20" value="EXIBA" style="strokeWidth=2;html=1;shape=mxgraph.flowchart.display;whiteSpace=wrap;fillColor=#fff2cc;strokeColor=#d6b656;" vertex="1" parent="1">
          <mxGeometry x="1010" y="460" width="100" height="60" as="geometry" />
        </mxCell>
        <mxCell id="yPkB2fRnEWPRsgK_dyeM-23" style="edgeStyle=orthogonalEdgeStyle;rounded=0;orthogonalLoop=1;jettySize=auto;html=1;entryX=1;entryY=0.5;entryDx=0;entryDy=0;" edge="1" parent="1" source="yPkB2fRnEWPRsgK_dyeM-21" target="yPkB2fRnEWPRsgK_dyeM-17">
          <mxGeometry relative="1" as="geometry" />
        </mxCell>
        <mxCell id="yPkB2fRnEWPRsgK_dyeM-21" value="EXIBA" style="strokeWidth=2;html=1;shape=mxgraph.flowchart.display;whiteSpace=wrap;fillColor=#fff2cc;strokeColor=#d6b656;" vertex="1" parent="1">
          <mxGeometry x="1450" y="460" width="100" height="60" as="geometry" />
        </mxCell>
        <mxCell id="yPkB2fRnEWPRsgK_dyeM-25" style="edgeStyle=orthogonalEdgeStyle;rounded=0;orthogonalLoop=1;jettySize=auto;html=1;exitX=0.5;exitY=1;exitDx=0;exitDy=0;exitPerimeter=0;entryX=0.5;entryY=0;entryDx=0;entryDy=0;" edge="1" parent="1" source="yPkB2fRnEWPRsgK_dyeM-26" target="yPkB2fRnEWPRsgK_dyeM-27">
          <mxGeometry relative="1" as="geometry" />
        </mxCell>
        <mxCell id="yPkB2fRnEWPRsgK_dyeM-26" value="&lt;font style=&quot;color: rgb(0, 0, 0);&quot;&gt;INÍCIO&lt;/font&gt;" style="strokeWidth=2;html=1;shape=mxgraph.flowchart.start_1;whiteSpace=wrap;fillColor=#008a00;fontColor=#ffffff;strokeColor=#005700;" vertex="1" parent="1">
          <mxGeometry x="1191" y="1210" width="100" height="60" as="geometry" />
        </mxCell>
        <mxCell id="yPkB2fRnEWPRsgK_dyeM-32" style="edgeStyle=orthogonalEdgeStyle;rounded=0;orthogonalLoop=1;jettySize=auto;html=1;" edge="1" parent="1" source="yPkB2fRnEWPRsgK_dyeM-27" target="yPkB2fRnEWPRsgK_dyeM-31">
          <mxGeometry relative="1" as="geometry" />
        </mxCell>
        <mxCell id="yPkB2fRnEWPRsgK_dyeM-52" style="edgeStyle=orthogonalEdgeStyle;rounded=0;orthogonalLoop=1;jettySize=auto;html=1;entryX=0;entryY=0.5;entryDx=0;entryDy=0;" edge="1" parent="1" source="yPkB2fRnEWPRsgK_dyeM-27" target="yPkB2fRnEWPRsgK_dyeM-29">
          <mxGeometry relative="1" as="geometry" />
        </mxCell>
        <mxCell id="yPkB2fRnEWPRsgK_dyeM-27" value="RECEBE O NÚMERO" style="shape=parallelogram;html=1;strokeWidth=2;perimeter=parallelogramPerimeter;whiteSpace=wrap;rounded=1;arcSize=12;size=0.23;fillColor=#e3c800;fontColor=#000000;strokeColor=#B09500;" vertex="1" parent="1">
          <mxGeometry x="1191" y="1370" width="100" height="60" as="geometry" />
        </mxCell>
        <mxCell id="yPkB2fRnEWPRsgK_dyeM-41" style="edgeStyle=orthogonalEdgeStyle;rounded=0;orthogonalLoop=1;jettySize=auto;html=1;" edge="1" parent="1" source="yPkB2fRnEWPRsgK_dyeM-29" target="yPkB2fRnEWPRsgK_dyeM-39">
          <mxGeometry relative="1" as="geometry" />
        </mxCell>
        <mxCell id="yPkB2fRnEWPRsgK_dyeM-29" value="É ENTRE 18 E 20?" style="shape=parallelogram;html=1;strokeWidth=2;perimeter=parallelogramPerimeter;whiteSpace=wrap;rounded=1;arcSize=12;size=0.23;fillColor=#e3c800;fontColor=#000000;strokeColor=#B09500;" vertex="1" parent="1">
          <mxGeometry x="1470" y="1355" width="140" height="90" as="geometry" />
        </mxCell>
        <mxCell id="yPkB2fRnEWPRsgK_dyeM-33" style="edgeStyle=orthogonalEdgeStyle;rounded=0;orthogonalLoop=1;jettySize=auto;html=1;" edge="1" parent="1" source="yPkB2fRnEWPRsgK_dyeM-31">
          <mxGeometry relative="1" as="geometry">
            <mxPoint x="910" y="1620" as="targetPoint" />
          </mxGeometry>
        </mxCell>
        <mxCell id="yPkB2fRnEWPRsgK_dyeM-31" value="É ENTRE 0 E 17" style="shape=parallelogram;html=1;strokeWidth=2;perimeter=parallelogramPerimeter;whiteSpace=wrap;rounded=1;arcSize=12;size=0.23;fillColor=#e3c800;fontColor=#000000;strokeColor=#B09500;" vertex="1" parent="1">
          <mxGeometry x="840" y="1355" width="140" height="90" as="geometry" />
        </mxCell>
        <mxCell id="yPkB2fRnEWPRsgK_dyeM-36" value="NÃO PODE DIRIGIR" style="shape=parallelogram;html=1;strokeWidth=2;perimeter=parallelogramPerimeter;whiteSpace=wrap;rounded=1;arcSize=12;size=0.23;fillColor=#e3c800;fontColor=#000000;strokeColor=#B09500;" vertex="1" parent="1">
          <mxGeometry x="840" y="1620" width="140" height="90" as="geometry" />
        </mxCell>
        <mxCell id="yPkB2fRnEWPRsgK_dyeM-39" value="&amp;nbsp;PODE DIRIGIR" style="shape=parallelogram;html=1;strokeWidth=2;perimeter=parallelogramPerimeter;whiteSpace=wrap;rounded=1;arcSize=12;size=0.23;fillColor=#e3c800;fontColor=#000000;strokeColor=#B09500;" vertex="1" parent="1">
          <mxGeometry x="1470" y="1620" width="140" height="90" as="geometry" />
        </mxCell>
        <mxCell id="yPkB2fRnEWPRsgK_dyeM-42" value="FIM" style="ellipse;whiteSpace=wrap;html=1;fillColor=#f8cecc;strokeColor=#b85450;" vertex="1" parent="1">
          <mxGeometry x="1160" y="1860" width="120" height="80" as="geometry" />
        </mxCell>
        <mxCell id="yPkB2fRnEWPRsgK_dyeM-49" style="edgeStyle=orthogonalEdgeStyle;rounded=0;orthogonalLoop=1;jettySize=auto;html=1;entryX=0.5;entryY=0;entryDx=0;entryDy=0;" edge="1" parent="1" source="yPkB2fRnEWPRsgK_dyeM-45" target="yPkB2fRnEWPRsgK_dyeM-42">
          <mxGeometry relative="1" as="geometry" />
        </mxCell>
        <mxCell id="yPkB2fRnEWPRsgK_dyeM-45" value="EXIBA OS RESULTADOS" style="strokeWidth=2;html=1;shape=mxgraph.flowchart.display;whiteSpace=wrap;fillColor=#ffe6cc;strokeColor=#d79b00;" vertex="1" parent="1">
          <mxGeometry x="1170" y="1710" width="100" height="60" as="geometry" />
        </mxCell>
        <mxCell id="yPkB2fRnEWPRsgK_dyeM-46" style="edgeStyle=orthogonalEdgeStyle;rounded=0;orthogonalLoop=1;jettySize=auto;html=1;entryX=1;entryY=0.5;entryDx=0;entryDy=0;entryPerimeter=0;" edge="1" parent="1" source="yPkB2fRnEWPRsgK_dyeM-39" target="yPkB2fRnEWPRsgK_dyeM-45">
          <mxGeometry relative="1" as="geometry" />
        </mxCell>
        <mxCell id="yPkB2fRnEWPRsgK_dyeM-47" style="edgeStyle=orthogonalEdgeStyle;rounded=0;orthogonalLoop=1;jettySize=auto;html=1;entryX=0;entryY=0.5;entryDx=0;entryDy=0;entryPerimeter=0;" edge="1" parent="1" source="yPkB2fRnEWPRsgK_dyeM-36" target="yPkB2fRnEWPRsgK_dyeM-45">
          <mxGeometry relative="1" as="geometry" />
        </mxCell>
        <mxCell id="yPkB2fRnEWPRsgK_dyeM-56" style="edgeStyle=orthogonalEdgeStyle;rounded=0;orthogonalLoop=1;jettySize=auto;html=1;exitX=0.5;exitY=1;exitDx=0;exitDy=0;exitPerimeter=0;entryX=0.5;entryY=0;entryDx=0;entryDy=0;" edge="1" source="yPkB2fRnEWPRsgK_dyeM-57" target="yPkB2fRnEWPRsgK_dyeM-60" parent="1">
          <mxGeometry relative="1" as="geometry" />
        </mxCell>
        <mxCell id="yPkB2fRnEWPRsgK_dyeM-57" value="&lt;font style=&quot;color: rgb(0, 0, 0);&quot;&gt;INÍCIO&lt;/font&gt;" style="strokeWidth=2;html=1;shape=mxgraph.flowchart.start_1;whiteSpace=wrap;fillColor=#008a00;fontColor=#ffffff;strokeColor=#005700;" vertex="1" parent="1">
          <mxGeometry x="2005" y="30" width="100" height="60" as="geometry" />
        </mxCell>
        <mxCell id="yPkB2fRnEWPRsgK_dyeM-73" style="edgeStyle=orthogonalEdgeStyle;rounded=0;orthogonalLoop=1;jettySize=auto;html=1;entryX=0.5;entryY=0;entryDx=0;entryDy=0;" edge="1" parent="1" source="yPkB2fRnEWPRsgK_dyeM-60" target="yPkB2fRnEWPRsgK_dyeM-72">
          <mxGeometry relative="1" as="geometry" />
        </mxCell>
        <mxCell id="yPkB2fRnEWPRsgK_dyeM-60" value="RECEBE O NÚMERO" style="shape=parallelogram;html=1;strokeWidth=2;perimeter=parallelogramPerimeter;whiteSpace=wrap;rounded=1;arcSize=12;size=0.23;fillColor=#e3c800;fontColor=#000000;strokeColor=#B09500;" vertex="1" parent="1">
          <mxGeometry x="2005" y="190" width="100" height="60" as="geometry" />
        </mxCell>
        <mxCell id="yPkB2fRnEWPRsgK_dyeM-74" style="edgeStyle=orthogonalEdgeStyle;rounded=0;orthogonalLoop=1;jettySize=auto;html=1;" edge="1" parent="1" source="yPkB2fRnEWPRsgK_dyeM-72">
          <mxGeometry relative="1" as="geometry">
            <mxPoint x="2340" y="480" as="targetPoint" />
          </mxGeometry>
        </mxCell>
        <mxCell id="yPkB2fRnEWPRsgK_dyeM-75" value="MENOR QUE 0°" style="edgeLabel;html=1;align=center;verticalAlign=middle;resizable=0;points=[];" vertex="1" connectable="0" parent="yPkB2fRnEWPRsgK_dyeM-74">
          <mxGeometry x="-0.0837" y="-2" relative="1" as="geometry">
            <mxPoint x="-37" y="-2" as="offset" />
          </mxGeometry>
        </mxCell>
        <mxCell id="yPkB2fRnEWPRsgK_dyeM-76" style="edgeStyle=orthogonalEdgeStyle;rounded=0;orthogonalLoop=1;jettySize=auto;html=1;" edge="1" parent="1" source="yPkB2fRnEWPRsgK_dyeM-72">
          <mxGeometry relative="1" as="geometry">
            <mxPoint x="1810" y="480" as="targetPoint" />
          </mxGeometry>
        </mxCell>
        <mxCell id="yPkB2fRnEWPRsgK_dyeM-77" value="MAIOR QUE 0°" style="edgeLabel;html=1;align=center;verticalAlign=middle;resizable=0;points=[];" vertex="1" connectable="0" parent="yPkB2fRnEWPRsgK_dyeM-76">
          <mxGeometry x="0.0133" y="-2" relative="1" as="geometry">
            <mxPoint x="29" y="1" as="offset" />
          </mxGeometry>
        </mxCell>
        <mxCell id="yPkB2fRnEWPRsgK_dyeM-72" value="TEMPERATURA É IGUAL OU MENOR QUE 0°" style="rhombus;whiteSpace=wrap;html=1;fillColor=#e1d5e7;strokeColor=#9673a6;" vertex="1" parent="1">
          <mxGeometry x="1972.5" y="385" width="165" height="190" as="geometry" />
        </mxCell>
        <mxCell id="yPkB2fRnEWPRsgK_dyeM-81" style="edgeStyle=orthogonalEdgeStyle;rounded=0;orthogonalLoop=1;jettySize=auto;html=1;entryX=0;entryY=0.5;entryDx=0;entryDy=0;" edge="1" parent="1" source="yPkB2fRnEWPRsgK_dyeM-78" target="yPkB2fRnEWPRsgK_dyeM-80">
          <mxGeometry relative="1" as="geometry">
            <Array as="points">
              <mxPoint x="1750" y="730" />
            </Array>
          </mxGeometry>
        </mxCell>
        <mxCell id="yPkB2fRnEWPRsgK_dyeM-78" value="EXIBE &quot;LIQUIDO EM ESTADO LIQUIDO&quot;" style="shape=parallelogram;html=1;strokeWidth=2;perimeter=parallelogramPerimeter;whiteSpace=wrap;rounded=1;arcSize=12;size=0.23;fillColor=#e3c800;fontColor=#000000;strokeColor=#B09500;" vertex="1" parent="1">
          <mxGeometry x="1680" y="420" width="140" height="120" as="geometry" />
        </mxCell>
        <mxCell id="yPkB2fRnEWPRsgK_dyeM-82" style="edgeStyle=orthogonalEdgeStyle;rounded=0;orthogonalLoop=1;jettySize=auto;html=1;entryX=1;entryY=0.5;entryDx=0;entryDy=0;" edge="1" parent="1" source="yPkB2fRnEWPRsgK_dyeM-79" target="yPkB2fRnEWPRsgK_dyeM-80">
          <mxGeometry relative="1" as="geometry">
            <Array as="points">
              <mxPoint x="2395" y="730" />
            </Array>
          </mxGeometry>
        </mxCell>
        <mxCell id="yPkB2fRnEWPRsgK_dyeM-79" value="EXIBA &quot;LIQUIDO CONGELADO&quot;" style="shape=parallelogram;html=1;strokeWidth=2;perimeter=parallelogramPerimeter;whiteSpace=wrap;rounded=1;arcSize=12;size=0.23;fillColor=#e3c800;fontColor=#000000;strokeColor=#B09500;" vertex="1" parent="1">
          <mxGeometry x="2320" y="440" width="150" height="100" as="geometry" />
        </mxCell>
        <mxCell id="yPkB2fRnEWPRsgK_dyeM-80" value="FIM" style="ellipse;whiteSpace=wrap;html=1;fillColor=#f8cecc;strokeColor=#b85450;" vertex="1" parent="1">
          <mxGeometry x="1995" y="690" width="120" height="80" as="geometry" />
        </mxCell>
        <mxCell id="yPkB2fRnEWPRsgK_dyeM-84" style="edgeStyle=orthogonalEdgeStyle;rounded=0;orthogonalLoop=1;jettySize=auto;html=1;exitX=0.5;exitY=1;exitDx=0;exitDy=0;exitPerimeter=0;entryX=0.5;entryY=0;entryDx=0;entryDy=0;" edge="1" source="yPkB2fRnEWPRsgK_dyeM-85" target="yPkB2fRnEWPRsgK_dyeM-87" parent="1">
          <mxGeometry relative="1" as="geometry" />
        </mxCell>
        <mxCell id="yPkB2fRnEWPRsgK_dyeM-85" value="&lt;font style=&quot;color: rgb(0, 0, 0);&quot;&gt;INÍCIO&lt;/font&gt;" style="strokeWidth=2;html=1;shape=mxgraph.flowchart.start_1;whiteSpace=wrap;fillColor=#008a00;fontColor=#ffffff;strokeColor=#005700;" vertex="1" parent="1">
          <mxGeometry x="1945" y="1230" width="100" height="60" as="geometry" />
        </mxCell>
        <mxCell id="yPkB2fRnEWPRsgK_dyeM-86" style="edgeStyle=orthogonalEdgeStyle;rounded=0;orthogonalLoop=1;jettySize=auto;html=1;entryX=0.5;entryY=0;entryDx=0;entryDy=0;" edge="1" source="yPkB2fRnEWPRsgK_dyeM-87" target="yPkB2fRnEWPRsgK_dyeM-92" parent="1">
          <mxGeometry relative="1" as="geometry" />
        </mxCell>
        <mxCell id="yPkB2fRnEWPRsgK_dyeM-87" value="OBTENHA A IDADE" style="shape=parallelogram;html=1;strokeWidth=2;perimeter=parallelogramPerimeter;whiteSpace=wrap;rounded=1;arcSize=12;size=0.23;fillColor=#e3c800;fontColor=#000000;strokeColor=#B09500;" vertex="1" parent="1">
          <mxGeometry x="1945" y="1390" width="100" height="60" as="geometry" />
        </mxCell>
        <mxCell id="yPkB2fRnEWPRsgK_dyeM-88" style="edgeStyle=orthogonalEdgeStyle;rounded=0;orthogonalLoop=1;jettySize=auto;html=1;" edge="1" source="yPkB2fRnEWPRsgK_dyeM-92" parent="1">
          <mxGeometry relative="1" as="geometry">
            <mxPoint x="2280" y="1680" as="targetPoint" />
          </mxGeometry>
        </mxCell>
        <mxCell id="yPkB2fRnEWPRsgK_dyeM-89" value="SIM" style="edgeLabel;html=1;align=center;verticalAlign=middle;resizable=0;points=[];" vertex="1" connectable="0" parent="yPkB2fRnEWPRsgK_dyeM-88">
          <mxGeometry x="-0.0837" y="-2" relative="1" as="geometry">
            <mxPoint x="-37" y="-2" as="offset" />
          </mxGeometry>
        </mxCell>
        <mxCell id="yPkB2fRnEWPRsgK_dyeM-90" style="edgeStyle=orthogonalEdgeStyle;rounded=0;orthogonalLoop=1;jettySize=auto;html=1;" edge="1" source="yPkB2fRnEWPRsgK_dyeM-92" parent="1">
          <mxGeometry relative="1" as="geometry">
            <mxPoint x="1750" y="1680" as="targetPoint" />
          </mxGeometry>
        </mxCell>
        <mxCell id="yPkB2fRnEWPRsgK_dyeM-91" value="NÃO" style="edgeLabel;html=1;align=center;verticalAlign=middle;resizable=0;points=[];" vertex="1" connectable="0" parent="yPkB2fRnEWPRsgK_dyeM-90">
          <mxGeometry x="0.0133" y="-2" relative="1" as="geometry">
            <mxPoint x="29" y="1" as="offset" />
          </mxGeometry>
        </mxCell>
        <mxCell id="yPkB2fRnEWPRsgK_dyeM-92" value="IDADE &amp;lt;16?" style="rhombus;whiteSpace=wrap;html=1;fillColor=#e1d5e7;strokeColor=#9673a6;" vertex="1" parent="1">
          <mxGeometry x="1912.5" y="1585" width="165" height="190" as="geometry" />
        </mxCell>
        <mxCell id="yPkB2fRnEWPRsgK_dyeM-98" value="IDADE É &amp;gt;=18 OU MENOR QUE 70?" style="rhombus;whiteSpace=wrap;html=1;fillColor=#e1d5e7;strokeColor=#9673a6;" vertex="1" parent="1">
          <mxGeometry x="2280" y="1622.5" width="100" height="115" as="geometry" />
        </mxCell>
        <mxCell id="yPkB2fRnEWPRsgK_dyeM-107" style="edgeStyle=orthogonalEdgeStyle;rounded=0;orthogonalLoop=1;jettySize=auto;html=1;entryX=0.5;entryY=0;entryDx=0;entryDy=0;" edge="1" parent="1" source="yPkB2fRnEWPRsgK_dyeM-99" target="yPkB2fRnEWPRsgK_dyeM-103">
          <mxGeometry relative="1" as="geometry" />
        </mxCell>
        <mxCell id="yPkB2fRnEWPRsgK_dyeM-99" value="VOTO FACULTATIVO" style="strokeWidth=2;html=1;shape=mxgraph.flowchart.display;whiteSpace=wrap;fillColor=#ffe6cc;strokeColor=#d79b00;" vertex="1" parent="1">
          <mxGeometry x="2170" y="1810" width="100" height="60" as="geometry" />
        </mxCell>
        <mxCell id="yPkB2fRnEWPRsgK_dyeM-100" style="edgeStyle=orthogonalEdgeStyle;rounded=0;orthogonalLoop=1;jettySize=auto;html=1;entryX=1;entryY=0.5;entryDx=0;entryDy=0;entryPerimeter=0;" edge="1" parent="1" source="yPkB2fRnEWPRsgK_dyeM-98" target="yPkB2fRnEWPRsgK_dyeM-99">
          <mxGeometry relative="1" as="geometry">
            <Array as="points">
              <mxPoint x="2330" y="1840" />
            </Array>
          </mxGeometry>
        </mxCell>
        <mxCell id="yPkB2fRnEWPRsgK_dyeM-104" style="edgeStyle=orthogonalEdgeStyle;rounded=0;orthogonalLoop=1;jettySize=auto;html=1;entryX=1;entryY=0.5;entryDx=0;entryDy=0;exitX=0;exitY=0.5;exitDx=0;exitDy=0;exitPerimeter=0;" edge="1" parent="1" target="yPkB2fRnEWPRsgK_dyeM-103">
          <mxGeometry relative="1" as="geometry">
            <mxPoint x="2400" y="1890" as="sourcePoint" />
            <Array as="points">
              <mxPoint x="2400" y="2030" />
            </Array>
          </mxGeometry>
        </mxCell>
        <mxCell id="yPkB2fRnEWPRsgK_dyeM-111" style="edgeStyle=orthogonalEdgeStyle;rounded=0;orthogonalLoop=1;jettySize=auto;html=1;entryX=0.5;entryY=1;entryDx=0;entryDy=0;" edge="1" parent="1" source="yPkB2fRnEWPRsgK_dyeM-101" target="yPkB2fRnEWPRsgK_dyeM-103">
          <mxGeometry relative="1" as="geometry">
            <Array as="points">
              <mxPoint x="2440" y="1880" />
              <mxPoint x="2440" y="2090" />
              <mxPoint x="1995" y="2090" />
            </Array>
          </mxGeometry>
        </mxCell>
        <mxCell id="yPkB2fRnEWPRsgK_dyeM-101" value="VOTO OBRIGATORIO" style="strokeWidth=2;html=1;shape=mxgraph.flowchart.display;whiteSpace=wrap;fillColor=#ffe6cc;strokeColor=#d79b00;" vertex="1" parent="1">
          <mxGeometry x="2330" y="1850" width="100" height="60" as="geometry" />
        </mxCell>
        <mxCell id="yPkB2fRnEWPRsgK_dyeM-103" value="FIM" style="ellipse;whiteSpace=wrap;html=1;fillColor=#f8cecc;strokeColor=#b85450;" vertex="1" parent="1">
          <mxGeometry x="1935" y="1990" width="120" height="80" as="geometry" />
        </mxCell>
        <mxCell id="yPkB2fRnEWPRsgK_dyeM-106" style="edgeStyle=orthogonalEdgeStyle;rounded=0;orthogonalLoop=1;jettySize=auto;html=1;entryX=0;entryY=0.5;entryDx=0;entryDy=0;" edge="1" parent="1" source="yPkB2fRnEWPRsgK_dyeM-105" target="yPkB2fRnEWPRsgK_dyeM-103">
          <mxGeometry relative="1" as="geometry">
            <Array as="points">
              <mxPoint x="1700" y="2030" />
            </Array>
          </mxGeometry>
        </mxCell>
        <mxCell id="yPkB2fRnEWPRsgK_dyeM-105" value="NAO PODE VOTAR" style="strokeWidth=2;html=1;shape=mxgraph.flowchart.display;whiteSpace=wrap;fillColor=#ffe6cc;strokeColor=#d79b00;" vertex="1" parent="1">
          <mxGeometry x="1650" y="1650" width="100" height="60" as="geometry" />
        </mxCell>
        <mxCell id="yPkB2fRnEWPRsgK_dyeM-109" style="edgeStyle=orthogonalEdgeStyle;rounded=0;orthogonalLoop=1;jettySize=auto;html=1;entryX=0.7;entryY=0;entryDx=0;entryDy=0;entryPerimeter=0;" edge="1" parent="1" source="yPkB2fRnEWPRsgK_dyeM-98" target="yPkB2fRnEWPRsgK_dyeM-101">
          <mxGeometry relative="1" as="geometry">
            <Array as="points">
              <mxPoint x="2400" y="1680" />
            </Array>
          </mxGeometry>
        </mxCell>
      </root>
    </mxGraphModel>
  </diagram>
</mxfile>
